<svg xmlns="http://www.w3.org/2000/svg" viewBox="0 0 130 85" width="130" height="85">
  <title>OpticalSetup</title>
  <g stroke="#1361fa" stroke-width="4" stroke-linecap="round">
    <line x1="22" y1="45" x2="29" y2="45"/>
    <line x1="20.8" y1="47.8" x2="25.8" y2="52.8"/>
    <line x1="18" y1="49" x2="18" y2="56"/>
    <line x1="15.2" y1="47.8" x2="10.2" y2="52.8"/>
    <line x1="14" y1="45" x2="7" y2="45"/>
    <line x1="15.2" y1="42.2" x2="10.2" y2="37.2"/>
    <line x1="18" y1="41" x2="18" y2="34"/>
    <line x1="20.8" y1="42.2" x2="25.8" y2="37.2"/>
  </g>
  <line x1="29" y1="45" x2="77" y2="45" stroke="#1361fa" stroke-width="4" stroke-linecap="round"/>
  <polygon points="64,12 42,68 86,68" fill="none" stroke="#0a1a33" stroke-width="4.5" stroke-linejoin="round"/>
  <g stroke="#1361fa" stroke-width="2.4" stroke-linecap="round">
    <line x1="77" y1="45" x2="108" y2="22"/>
    <line x1="77" y1="45" x2="108" y2="34"/>
    <line x1="77" y1="45" x2="108" y2="45"/>
    <line x1="77" y1="45" x2="108" y2="56"/>
    <line x1="77" y1="45" x2="108" y2="68"/>
  </g>
  <line x1="108" y1="14" x2="108" y2="76" stroke="#0a1a33" stroke-width="4" stroke-linecap="round"/>
  <g stroke="#0a1a33" stroke-width="3" stroke-linecap="round">
    <line x1="108" y1="22" x2="115" y2="22"/>
    <line x1="108" y1="34" x2="115" y2="34"/>
    <line x1="108" y1="45" x2="115" y2="45"/>
    <line x1="108" y1="56" x2="115" y2="56"/>
    <line x1="108" y1="68" x2="115" y2="68"/>
  </g>
</svg>
