<svg xmlns="http://www.w3.org/2000/svg" viewBox="20 30 1060 540" width="1060" height="540" font-family="Helvetica, Arial, sans-serif"><rect x="20" y="30" width="1060" height="540" fill="#ffffff"/><polyline points="197.00,310.00 250.00,310.00" fill="none" stroke="#8b1a1a" stroke-width="2" opacity="0.95" stroke-linejoin="round" stroke-linecap="round" /><polyline points="250.00,310.00 410.50,310.00 545.50,310.00 920.00,310.00 960.00,310.00 6960.00,310.00" fill="none" stroke="#8b1a1a" stroke-width="2" opacity="0.758" stroke-linejoin="round" stroke-linecap="round" /><g transform="translate(550 58) rotate(0)"><text x="0" y="0" text-anchor="middle" dominant-baseline="central" font-size="18" fill="#172033">High-Throughput Two-Photon 3D Printing Enabled by Holographic Multi-Foci High-Speed Scanning</text></g><g transform="translate(550 87) rotate(0)"><text x="0" y="0" text-anchor="middle" dominant-baseline="central" font-size="11" fill="#475569">L. Zhang et al., Nano Letters 24, 2671–2679 (2024)</text></g><g transform="translate(550 111) rotate(0)"><text x="0" y="0" text-anchor="middle" dominant-baseline="central" font-size="10" fill="#64748b">Fig. 1a, PDF page 2 (system schematic)</text></g><g transform="translate(145 310) rotate(0)"><rect x="-46" y="-17" width="92" height="34" rx="4" fill="#3a3f46" stroke="#22252a" stroke-width="1.5"/><text x="0" y="-3"  text-anchor="middle" dominant-baseline="central" font-size="10" font-weight="700" letter-spacing="1.5" fill="#fff">LASER</text><g stroke="#8fd3ff" stroke-width="1.2" opacity="0.95"><path d="M -17,8 L -12,8 L -10,3 L -8,11 L -6,8 L -1,8"/><path d="M 3,8 L 8,8 L 10,3 L 12,11 L 14,8 L 19,8"/></g><rect x="46" y="-6" width="5" height="12" fill="#666" stroke="#444" stroke-width="1"/></g><text x="145.0" y="284.0" text-anchor="middle"  font-size="11" fill="#444">1030 nm · 400 fs · 1 MHz · max 10 W</text><g transform="translate(250 310) rotate(0)"><rect x="-20" y="-13" width="40" height="26" rx="3" fill="#c9b458" stroke="#8a7a2e" stroke-width="1.5"/><text x="0" y="0"  text-anchor="middle" dominant-baseline="central" font-size="11" font-weight="600" fill="#3d3616">AOM</text></g><text x="250.0" y="288.0" text-anchor="middle"  font-size="11" fill="#444">AOM</text><g transform="translate(364 310) rotate(0)"><rect x="-36" y="-24" width="72" height="48" rx="3" fill="#eef2f7" stroke="#7a828c" stroke-width="1.5"/><text x="0" y="0"  text-anchor="middle" dominant-baseline="central" font-size="5.278592375366569" font-weight="600" fill="#3d444d">HWP/PBS
energy control</text></g><g transform="translate(478 310) rotate(0)"><line x1="-67.5" y1="0" x2="67.5" y2="0" stroke="#b6bdc6" stroke-width="1" stroke-dasharray="4 4"/><path d="M -67.5,-17 Q -58.5,0 -67.5,17 Q -76.5,0 -67.5,-17 Z" fill="#c9e4f5" stroke="#4a90c4" stroke-width="1.5"/><path d="M 67.5,-17 Q 76.5,0 67.5,17 Q 58.5,0 67.5,-17 Z" fill="#c9e4f5" stroke="#4a90c4" stroke-width="1.5"/></g><text x="478.0" y="281.0" text-anchor="middle"  font-size="11" fill="#444">beam expander
+ iris</text><g transform="translate(592 310) rotate(0)"><rect x="-36" y="-24" width="72" height="48" rx="3" fill="#eef2f7" stroke="#7a828c" stroke-width="1.5"/><text x="0" y="0"  text-anchor="middle" dominant-baseline="central" font-size="6.112054329371817" font-weight="600" fill="#3d444d">reflective
LCoS-SLM</text></g><g transform="translate(706 310) rotate(0)"><rect x="-36" y="-24" width="72" height="48" rx="3" fill="#eef2f7" stroke="#7a828c" stroke-width="1.5"/><text x="0" y="0"  text-anchor="middle" dominant-baseline="central" font-size="5.278592375366569" font-weight="600" fill="#3d444d">4f relays +
galvo pair</text></g><g transform="translate(820 310) rotate(0)"><rect x="-36" y="-24" width="72" height="48" rx="3" fill="#eef2f7" stroke="#7a828c" stroke-width="1.5"/><text x="0" y="0"  text-anchor="middle" dominant-baseline="central" font-size="11" font-weight="600" fill="#3d444d">CCD branch</text></g><g transform="translate(904 310) rotate(0)"><path d="M 16,-23 L -2,-30 L -16,-30 L -16,30 L -2,30 L 16,23 Z" fill="#8d98a5" stroke="#4d565f" stroke-width="1.5"/><line x1="-2" y1="-30" x2="-2" y2="30" stroke="#4d565f" stroke-width="1"/><rect x="14.5" y="-23" width="3" height="46" fill="#c9e4f5" stroke="#4a90c4" stroke-width="1"/></g><text x="904.0" y="270.0" text-anchor="middle"  font-size="11" fill="#444">60× NA 1.35 oil objective</text><g transform="translate(960 310) rotate(0)"><path d="M 8,-36 L -6,-36 L -6,-14.399999999999999" fill="none" stroke="#4d565f" stroke-width="4"/><path d="M 8,36 L -6,36 L -6,14.399999999999999" fill="none" stroke="#4d565f" stroke-width="4"/><rect x="-2" y="-24" width="5" height="48" fill="#c9e4f5" fill-opacity="0.75" stroke="#4a90c4" stroke-width="1.2"/><circle cx="0.5" cy="0" r="6.2" fill="none" stroke="#7c3aed" stroke-width="0.8" stroke-dasharray="1.5 1.5"/></g><text x="960.0" y="362.0" text-anchor="middle"  font-size="11" fill="#444">resist · piezo Z</text><g transform="translate(550 438) rotate(0)"><text x="0" y="0" text-anchor="middle" dominant-baseline="central" font-size="10" fill="#7c2d12">Holographic focus synthesis, zero-order suppression, and multi-focus galvo scanning are diagram-only.</text></g><g transform="translate(550 505) rotate(0)"><text x="0" y="0" text-anchor="middle" dominant-baseline="central" font-size="10" fill="#475569">Qualitative chief ray only · diagram boxes do not claim simulated multi-focus, diffraction, dose, cure, or throughput</text></g></svg>
